<?xml version="1.0" encoding="UTF-8"?>
<svg id="Layer_2" data-name="Layer 2" xmlns="http://www.w3.org/2000/svg" viewBox="0 0 2028.49 2028.28">
  <g id="Layer_1-2" data-name="Layer 1">
    <path d="M2015.45,990.01c-24.26-18.98-59.63-32.76-85.09-51.21-2.74-3.38-6.21-27.63-1.1-31.79l72.9-65.32c12.76-15.82,7.93-36.06-9.02-46.28l-97.36-35.58-6.74-23.35,60.2-83.99c9.13-15.78,2.61-33.67-13.11-41.93l-104.24-16.71-14-22.62c8.31-27.23,24.58-52.87,36.01-79.33,6.62-15.32,13.96-27.77,2.43-43.41-12.39-16.81-50.33-8.38-68.92-7.72-18.74.67-37.6,1.05-56.31,1.42l-15.77-21.69,24.83-101.99c-1.15-19.55-13.51-30.85-33.42-29.47l-99.64,24.54-19.96-15.34c-.5-12.28-.83-24.79-.5-37.11.52-20.03,6.13-50,3.92-69.02-2.28-19.58-21.13-30.78-39.46-24.09l-88.7,42.01c-6.53,1.1-26.89-9.05-28.83-16.44-6.11-23.31-7.49-89.19-17.7-105.15-8.96-14.01-27.11-16.67-40.91-8.24l-79.54,58.83-28.86-7.85-32.72-93c-9.77-21.04-31.55-25.68-49.12-9.99l-68.86,74.2c-9.69-3.78-20.58,2.43-28-6.55-18.15-21.96-31.74-62.13-50.2-84.17-12.32-14.71-32.64-15.8-45.78-1.63l-52.04,87.59-3.75,2.46-25.09,1.86c-27.5-25.29-48.6-58.8-78.38-81.05-12.23-5.57-28.46.2-35.33,11.49-13.9,22.87-21.22,65.45-33.24,91.53-1.6,3.46-2.31,7.26-6.14,9.22-3.97,2.04-21.4,6.61-25.38,5.21l-84.56-61.43c-20.45-5.51-34.92,3.2-39.86,23.53-7.39,30.5-7.32,66.91-14.28,98.01-9.31,2.88-18.21,13.87-28.45,11.06-28.03-7.71-62.36-34.21-91.62-42.87-40.59-3.57-35.77,31.09-35.15,60.09.09,4.08,1.86,7.78,1.98,11.46.61,19.06,1.08,38.2,1.54,57.17l-21.63,17.82c-30.53-4.64-64.65-19.78-94.6-23.65-23.53-3.03-38.63,8.67-36.71,32.87,2.35,29.7,19.12,66.48,24.18,96.58.03,4.53-15.16,22.7-19.67,23.56-2.81.54-6.62.23-9.64.16-29.99-.71-64.41-7.54-94.02-3.98-16.92,2.03-26.54,18.59-23.1,34.71,4.63,21.74,28.44,58.48,37.87,81.13,8.56,20.55,3.15,20.58-6.46,39.32-31.08,6.77-67.55,6.9-98.02,14.28-21.05,5.11-27.98,18.81-23.6,39.91l61.05,82.98c2.17,5.01-2.26,22.03-4.75,26.89-1.97,3.83-5.77,4.54-9.23,6.14-26.09,12.03-68.63,19.33-91.54,33.24-16.68,10.14-16.49,30.11-5.4,44.59,12.06,15.76,41.17,35.73,56.7,50.8,5.86,5.68,11.37,11.73,17.41,17.24l1.61,3.76-4.18,25.57-87.35,51.82c-13.7,11.36-14.44,29.47-3.44,42.81l90.43,55.47,4.54,26.17c-.19,3.49-5,7.08-7.51,9.47-20.19,19.23-50.46,40.41-67.98,60.63-13.02,15.03-10.61,34.56,5.85,45.61l98.11,35.29,8.11,25.72-61.84,87.58c-5.82,17.83,1.69,33.56,19.24,39.25l98.89,14.37c4.11,1.24,17.63,24.68,13.91,30.38l-42.42,90.05c-4.08,19.43,7.38,34.49,26.97,36.59,17.79,1.9,46.41-3.36,65.2-3.92,11.58-.34,23.26,1.1,34.75-.9l4.11,1.51,15.52,21.13c-7.81,35.68-21.29,71.49-24.37,107.74,2.29,14.46,14.02,22.15,27.84,23.98l101.84-24.73c4.22-.12,23.01,14.3,23.75,18.18-.06,5.13.24,10.33.05,15.46-.62,17.02-3.63,36.64-3.99,53.58-.64,30.28-5.39,63.88,37.09,58.2l92.88-43.3c13.91,6.29,23.28,6.11,26.99,22.19,6.47,28.01,5.4,67.61,13.86,93.64,5.6,17.21,27.3,25.63,43,15.89l81.85-60.31,25.52,6.85c4.33,2.39,28.58,80.72,34.33,92.84,10.2,21.5,27.25,26.92,47.58,13.58l70.25-75.64,24.48,2.3,56.98,90.83c12.29,12.31,29.94,11,42.36-.58l54.09-90.28c10.03.76,21.75-6.29,30.45.45l68.05,74c14.41,11.23,35.61,6.36,43.95-9.78,13.63-26.39,19.38-66.64,32.8-91.97,2.13-4.01,2.37-4.79,6.73-6.71,2.95-1.3,20.79-6.5,22.95-5.75,24.13,15.96,46.62,36.57,70.54,52.44,22.04,14.63,40.54,19.59,53.85-8.79l15.2-101.76,23.21-13.54,92.58,42.93c19.73,4.83,38.05-3.76,40.38-25.01,2.13-19.44-3.45-48.72-3.92-69.03-.21-8.61-1.71-32.08,2.8-37.67,2.26-2.8,16.03-13.29,19.25-13.39l100.19,24.95c17.42.43,32.24-13.61,31.31-31.3-1.43-27.17-21.07-68.02-24.43-96.77-1.2-10.22,10.88-19.54,17.73-26.51l101.85,4.97c19.94-1.72,31.6-21.89,24.92-40.3l-42.84-92.63,13.53-23.21c31.52-7.43,69.06-6.7,99.79-15.27,24.04-6.7,27.83-26.99,15.77-47.25-15.36-25.79-41.11-51.21-57.44-77.06,2.05-9.8,3.47-24.91,12.46-29.67,25.66-13.59,65.56-19.16,91.98-32.8,16.15-8.34,21.01-29.54,9.79-43.95l-74.96-69c-4.99-8.67,1.14-20.01.49-29.48l91.11-54.77c12.53-15.73,11.5-32.58-4.49-45.1ZM1760.29,832.12c-9.26,1.22-17.61.86-25.03-.79h-.01c-44.12-9.67-55.49-63.92-30.63-94.1h.01c8.29-10.08,20.62-17.47,37.12-19.62,75.37-9.83,88.37,105.29,18.54,114.51ZM1006.52,184.02c57.63-6.83,77.27,51.98,56.99,88.08-10.17,18.1-30.37,30.49-60.86,26.04-17.88-2.61-30.58-12.76-37.97-26.02-17.91-32.16-4.58-82.59,41.84-88.1ZM221.88,775.1v-.02c0-15.08,5.28-30.16,15.89-41.13.03-.03.06-.07.09-.1,10.59-11.57,26.29-18.63,46.69-16.43.55.05,1.1.12,1.66.19,16.5,2.15,28.83,9.54,37.12,19.61h.01c24.86,30.19,13.49,84.44-30.63,94.11h-.01c-2.35.52-4.8.92-7.34,1.17-5.46.55-11.37.45-17.69-.38-31.94-4.22-46.55-30.58-45.79-57.02ZM616.93,1642.87c-1.43,30.41-23.86,59.31-69.27,52.71-55.12-8.02-60.9-90.95-9.87-110.44,4.73-1.82,9.95-3.08,15.67-3.69,43.03-4.57,64.97,29.27,63.47,61.42ZM1455.71,1695.58c-28.1-4.06-43.19-27.75-44.39-52.56h0c-1.37-27.98,14.94-57.37,50.15-61.62,11.33-1.37,21.22.02,29.61,3.41h.01c53.1,21.39,46.24,122.57-35.38,110.77ZM1757.88,1012.86c-.09,19.72-.95,39.42-2.19,58.91-.01.15-.02.3-.03.45-.05.62-.1,1.23-.15,1.85-.1,1.28-.2,2.56-.32,3.84-.07.96-.16,1.92-.25,2.87-.13,1.57-.28,3.14-.43,4.7-.1,1.15-.21,2.29-.34,3.43-.08.88-.17,1.76-.26,2.63-.1,1.06-.22,2.12-.33,3.17-.18,1.61-.36,3.22-.54,4.82-.17,1.56-.36,3.11-.55,4.67-.15,1.29-.31,2.58-.47,3.86-.23,1.82-.46,3.63-.71,5.44-.09.64-.17,1.28-.26,1.91-.21,1.6-.43,3.19-.67,4.78-.11.86-.24,1.72-.37,2.58-.22,1.54-.45,3.08-.69,4.62-.22,1.48-.45,2.96-.69,4.44-.02.1-.03.2-.05.29-.46,2.94-.95,5.87-1.45,8.8-.02.12-.04.24-.06.36-.26,1.5-.52,3-.8,4.5-.53,3.05-1.1,6.09-1.69,9.13-.21,1.14-.43,2.29-.66,3.43-.18.96-.37,1.91-.57,2.87-.18.94-.37,1.87-.57,2.8-.31,1.51-.62,3.03-.94,4.53-.3,1.46-.61,2.91-.93,4.36-.04.18-.08.35-.12.53-.52,2.39-1.05,4.77-1.6,7.15-.35,1.53-.7,3.05-1.06,4.57-.3,1.31-.61,2.61-.93,3.91-.76,3.17-1.55,6.33-2.35,9.48-.31,1.22-.62,2.44-.95,3.66-.6,2.31-1.21,4.62-1.84,6.92-.26,1.02-.54,2.03-.83,3.05-.5,1.86-1.02,3.71-1.55,5.55-.42,1.47-.84,2.94-1.27,4.41-.42,1.47-.85,2.93-1.29,4.39-.76,2.6-1.55,5.19-2.36,7.77-.17.55-.34,1.1-.51,1.65-.31,1.02-.63,2.03-.95,3.04-1.09,3.44-2.21,6.86-3.34,10.27-.3.92-.61,1.83-.92,2.75-.56,1.66-1.13,3.31-1.7,4.96-.48,1.43-.98,2.87-1.5,4.3-.49,1.43-1,2.86-1.52,4.29-1.03,2.86-2.07,5.71-3.13,8.54-.52,1.42-1.05,2.84-1.6,4.25-.54,1.42-1.08,2.84-1.63,4.25-.42,1.09-.84,2.18-1.27,3.26-.22.55-.43,1.09-.65,1.64-.46,1.18-.93,2.36-1.41,3.54-.56,1.4-1.13,2.8-1.7,4.2-.56,1.4-1.14,2.8-1.73,4.19-.57,1.4-1.15,2.79-1.75,4.18-3.52,8.34-7.19,16.61-11.02,24.79-1.27,2.73-2.56,5.45-3.87,8.15-.65,1.36-1.3,2.71-1.97,4.06-1.32,2.7-2.65,5.39-4.01,8.07-.67,1.34-1.35,2.68-2.04,4.02-.69,1.33-1.38,2.67-2.07,4-.68,1.33-1.38,2.66-2.09,3.98-.75,1.43-1.5,2.85-2.26,4.26-.82,1.55-1.65,3.09-2.5,4.63-1.98,3.63-3.99,7.24-6.03,10.83-.57,1.02-1.15,2.04-1.74,3.06-.74,1.31-1.49,2.61-2.25,3.9-1.42,2.45-2.86,4.89-4.32,7.32-.69,1.18-1.4,2.36-2.11,3.53-1.09,1.8-2.18,3.59-3.28,5.37-.78,1.28-1.56,2.55-2.36,3.81-1.35,2.17-2.71,4.33-4.09,6.48-2.65,4.15-5.33,8.26-8.06,12.34-.65.99-1.32,1.98-1.99,2.97-1,1.49-2.01,2.98-3.02,4.45-.61.9-1.22,1.8-1.85,2.69-1.92,2.79-3.87,5.56-5.83,8.32-.71,1-1.42,2-2.14,2.99-3.38,4.72-6.82,9.39-10.32,14.01-1.15,1.53-2.3,3.05-3.47,4.57-.33.43-.66.86-.99,1.28-1.05,1.37-2.11,2.74-3.17,4.1-1.5,1.91-2.99,3.81-4.5,5.7-5.13,6.65-10.53,13.1-16.04,19.45-.04.05-.08.1-.12.14-.15.17-.3.35-.45.52-.01,0-.02.02-.03.03-7.18,8.24-14.55,16.31-21.85,24.42-.05.06-.1.12-.16.18-.9,1-1.8,2.01-2.7,3.01l-.11-.02h-.01l-141.86-22.6c-27.28,1.85-50.01,16.76-57.47,43.86l-23.23,140.37h0c-.25.12-.49.24-.74.35-.1.05-.2.1-.3.14-15.69,7.3-31.61,14.17-47.75,20.5-.29.12-.59.23-.89.34-1.31.52-2.62,1.03-3.93,1.52h-.01c-20.78,8-41.9,15.07-63.37,20.98-9.29,2.56-18.62,4.94-27.98,7.13-1.06.25-2.11.5-3.17.74-110.73,25.52-225.65,25.83-335.8.82-1.76-.4-3.52-.81-5.27-1.22-1.4-.33-2.8-.66-4.2-1-1.94-.47-3.88-.95-5.81-1.43-1.49-.36-2.98-.74-4.46-1.13-28.74-7.34-57.11-16.44-84.94-27.27-6.15-2.39-28.2-10.68-40.56-17.44-.01,0-.02,0-.03-.02-4.55-2.49-7.79-4.77-8.41-6.48l-22.08-139.16c-8.38-24.42-29.92-40.49-55.89-41.6l-141.9,22.52c-.47-.11-1.38-.8-2.63-1.94-.02-.01-.04-.03-.05-.04-7.99-7.3-29.32-32.37-33.16-37.11-4.82-5.96-10.36-12.39-14.68-19.19-3.41-4.45-6.78-8.94-10.1-13.48-.71-.96-1.41-1.93-2.11-2.89-6.08-8.38-11.98-16.89-17.72-25.53-1.33-2-2.65-4.01-3.96-6.03-2.34-3.61-4.66-7.25-6.95-10.92-.75-1.19-1.49-2.39-2.23-3.59-.74-1.19-1.48-2.39-2.21-3.6-.74-1.2-1.46-2.41-2.19-3.61-.59-.98-1.18-1.96-1.76-2.94-.94-1.58-1.88-3.17-2.82-4.77-.62-1.07-1.25-2.14-1.87-3.22-.55-.95-1.1-1.91-1.65-2.87-.85-1.49-1.7-2.98-2.54-4.48-.7-1.22-1.39-2.46-2.07-3.69-.69-1.23-1.37-2.47-2.05-3.71-.68-1.23-1.36-2.47-2.03-3.72-.67-1.24-1.34-2.48-2-3.73-4.66-8.72-9.15-17.54-13.46-26.47-.62-1.28-1.23-2.56-1.84-3.84-.61-1.27-1.22-2.55-1.82-3.84-.4-.86-.81-1.72-1.21-2.58-.44-.95-.88-1.9-1.31-2.85-.41-.89-.82-1.78-1.23-2.68-.53-1.16-1.05-2.33-1.57-3.49-.39-.86-.78-1.73-1.16-2.6-.54-1.2-1.07-2.41-1.59-3.61-3.26-7.43-6.39-14.93-9.4-22.49-.9-2.24-1.78-4.49-2.65-6.74-.02-.03-.03-.06-.04-.09-.86-2.22-1.71-4.45-2.55-6.69-.27-.71-.54-1.42-.8-2.14-.88-2.37-1.75-4.74-2.61-7.12-.49-1.34-.97-2.69-1.44-4.03-.26-.7-.51-1.41-.75-2.13-.38-1.06-.75-2.12-1.11-3.18-.33-.93-.65-1.86-.96-2.8-.47-1.36-.93-2.71-1.38-4.07-.45-1.36-.91-2.72-1.35-4.08-.9-2.73-1.78-5.46-2.64-8.19-1.29-4.11-2.55-8.23-3.78-12.37h-.68c-28.36-99.36-37.03-203-24.66-305.88l.74-.38c.06-.47.12-.93.18-1.39l.45.6,126.3-65.68c22.39-16.49,29.98-42.43,21.41-68.73l-63.49-126.58c1.23-2.27,2.49-4.53,3.75-6.79.58-1.02,1.15-2.05,1.74-3.07.49-.88.99-1.75,1.48-2.62.69-1.2,1.38-2.39,2.07-3.58,5.18-8.94,10.55-17.76,16.09-26.46,1.17-1.85,2.36-3.7,3.55-5.54.3-.46.6-.91.89-1.35,1.1-1.7,2.22-3.39,3.34-5.08.51-.77,1.02-1.53,1.53-2.29,1.17-1.75,2.34-3.49,3.53-5.22.25-.37.49-.73.74-1.09,1.5-2.19,3.01-4.37,4.53-6.54,1.6-2.29,3.21-4.56,4.84-6.83.03-.05.06-.09.09-.12,1.62-2.27,3.26-4.53,4.92-6.78.01-.02.02-.03.02-.04,1.67-2.26,3.34-4.52,5.03-6.76,1.68-2.23,3.36-4.44,5.06-6.65.04-.06.09-.12.13-.17,3.42-4.43,6.88-8.83,10.39-13.18,3.54-4.38,7.12-8.73,10.76-13.03.08-.1.16-.2.25-.3,1.73-2.05,3.48-4.09,5.23-6.11,3.68-4.26,7.41-8.48,11.18-12.65,1.89-2.09,3.79-4.16,5.7-6.23,0-.01.01-.02.01-.02,7.99-12,64.53-62.58,69.36-66.59,51.55-42.88,109.14-78.75,170.45-106.42,2.8-1.26,5.6-2.5,8.41-3.73,1.38-.61,2.76-1.21,4.15-1.8,2.99-1.29,5.99-2.56,9.01-3.81.83-.35,1.67-.69,2.5-1.03,1.73-.71,3.48-1.42,5.22-2.12,1.95-.78,3.9-1.56,5.86-2.32.37-.15.74-.29,1.1-.43,1.9-.75,3.81-1.48,5.72-2.21.2-.07.4-.15.59-.22,1.22-.47,2.44-.93,3.67-1.38,1.74-.65,3.49-1.3,5.25-1.94,1.09-.41,2.19-.8,3.29-1.19,1.43-.51,2.86-1.02,4.29-1.52,1.43-.52,2.86-1.02,4.3-1.5,1.44-.5,2.87-.99,4.31-1.48,1.44-.5,2.88-.99,4.33-1.45,31.19-10.4,63.07-18.71,95.36-24.82l.12.12,101.69,99.65c41.77,30.38,69.97,4.05,99.86-24.83,20.63-19.93,70.36-69.7,73.91-74.05,33.78,5.66,66.95,13.92,99.29,24.56.83.27,1.65.55,2.47.82,62.84,20.9,122.49,50.76,177.26,87.92,1.16.79,2.32,1.58,3.47,2.37.33.23.66.45.98.68,2.74,1.88,5.46,3.8,8.17,5.72.03.02.07.05.1.07,56.76,40.23,107.96,88.42,151.63,142.58,1.49,1.86,3,3.7,4.47,5.57,1.07,1.35,2.13,2.71,3.19,4.07.92,1.18,1.83,2.35,2.74,3.54.91,1.18,1.82,2.36,2.7,3.55,22.06,28.95,41.97,59.49,59.48,91.35l-.13.26h-.01s-63.74,127.09-63.74,127.09c-8.57,26.3-.98,52.24,21.41,68.73l126.3,65.68c2.13,12.09,3.71,24.29,4.81,36.56.02.17.04.33.05.5,1.7,18.72,2.33,37.61,2.25,56.49,0,.19,0,.38-.01.57Z"/>
  </g>
</svg>