<?xml version="1.0" encoding="UTF-8"?>
<svg id="Layer_2" data-name="Layer 2" xmlns="http://www.w3.org/2000/svg" viewBox="0 0 1455.24 946.42">
  <g id="Layer_1-2" data-name="Layer 1">
    <path d="M1377.48,560.59c-3.97,0-6.06,5.38-6.54,8.75-3.04,21.49,1.45,45.21-2.59,68.5-11.04,63.66-70.11,93.19-128.21,63.92-44.14-22.24-41.11-59.27-56.08-99.41-17.15-46.03-49.57-94.47-86.89-126.23-1.28-1.09-3.04-1.98-4.77-1.94,17.41-13.76,37-24.6,53.78-39.29C1333.78,270.54,1187.88,15.38,968.65,0L399.9.04v.02h-234.29s.04-.04.05-.06H0v232.35h230.42v481.81H.73v232.26h725.95c5.62,0,6.44-8.26,6.8-12.39,5.61-65.64-4.43-139.09.01-205.57,1.34-4.69-4.39-14.3-8.73-14.3h-166.06v-134.37h200.62c58.72,0,92.36,61.46,107.5,109.42,20.9,66.21,34.14,257.21,130.55,257.21h313.13c5.04-6.75,9.96-13.6,14.76-20.53,73.01-105.22,119.55-230.21,129.98-365.3h-77.76ZM856.79,358.61c-5.83,2.11-27.16,8.11-32.2,8.11h-265.89v-134.37h263.97c7.03,0,28.98,6.66,36.52,9.55,65.52,25.13,62.39,93.19-2.4,116.71Z"/>
  </g>
</svg>