<?xml version="1.0" encoding="UTF-8"?>
<svg id="Layer_2" data-name="Layer 2" xmlns="http://www.w3.org/2000/svg" viewBox="0 0 2028.49 2028.28">
  <defs>
    <style>
      .cls-1 {
        fill: #fff;
      }
    </style>
  </defs>
  <g id="Layer_1-2" data-name="Layer 1">
    <g>
      <path d="M2015.45,990.01c-24.26-18.98-59.64-32.76-85.09-51.21-2.74-3.38-6.22-27.63-1.1-31.79l72.9-65.32c12.75-15.82,7.93-36.06-9.02-46.28l-97.36-35.58-6.75-23.35,60.21-83.99c9.12-15.78,2.6-33.67-13.12-41.93l-104.23-16.71-14-22.62c8.31-27.23,24.58-52.88,36.01-79.33,6.61-15.32,13.95-27.77,2.42-43.42-12.38-16.8-50.32-8.37-68.91-7.71-18.74.67-37.61,1.05-56.32,1.42l-15.77-21.69,24.84-101.99c-1.15-19.55-13.52-30.85-33.43-29.47l-99.63,24.54-19.97-15.34c-.49-12.28-.82-24.79-.5-37.11.53-20.03,6.14-50,3.92-69.02-2.28-19.58-21.12-30.78-39.46-24.09l-88.69,42.01c-6.53,1.1-26.9-9.05-28.84-16.44-6.11-23.31-7.49-89.19-17.69-105.15-8.97-14.02-27.11-16.67-40.91-8.24l-79.54,58.82-28.86-7.84-32.72-93c-9.77-21.04-31.56-25.68-49.12-9.99l-68.86,74.19c-9.7-3.77-20.59,2.44-28-6.54-18.16-21.96-31.75-62.13-50.21-84.17-12.32-14.71-32.64-15.8-45.78-1.63l-52.03,87.59-3.76,2.46-25.08,1.86c-27.5-25.29-48.6-58.8-78.38-81.05-12.24-5.57-28.46.2-35.33,11.49-13.91,22.87-21.23,65.45-33.25,91.53-1.59,3.46-2.3,7.25-6.13,9.22-3.97,2.04-21.4,6.61-25.38,5.21l-84.57-61.43c-20.45-5.51-34.92,3.2-39.85,23.53-7.4,30.5-7.32,66.91-14.29,98.01-9.3,2.88-18.21,13.87-28.45,11.06-28.03-7.72-62.36-34.21-91.62-42.87-40.59-3.57-35.77,31.09-35.14,60.09.08,4.08,1.86,7.78,1.97,11.46.61,19.06,1.08,38.2,1.55,57.17l-21.63,17.82c-30.53-4.64-64.65-19.78-94.61-23.65-23.53-3.03-38.62,8.67-36.71,32.87,2.35,29.7,19.12,66.48,24.19,96.58.03,4.53-15.16,22.7-19.67,23.56-2.82.54-6.63.23-9.64.15-30-.7-64.41-7.53-94.03-3.97-16.92,2.03-26.53,18.59-23.1,34.71,4.63,21.74,28.45,58.48,37.88,81.13,8.55,20.55,3.14,20.58-6.46,39.32-31.08,6.77-67.56,6.9-98.02,14.28-21.06,5.11-27.98,18.81-23.61,39.91l61.05,82.98c2.17,5.01-2.25,22.03-4.75,26.89-1.97,3.83-5.77,4.54-9.22,6.14-26.1,12.02-68.64,19.33-91.54,33.24-16.68,10.14-16.49,30.11-5.41,44.59,12.07,15.76,41.18,35.72,56.7,50.8,5.86,5.68,11.37,11.73,17.41,17.24l1.61,3.75-4.18,25.58-87.34,51.82c-13.7,11.36-14.45,29.47-3.44,42.81l90.42,55.47,4.54,26.17c-.18,3.49-5,7.08-7.51,9.47-20.19,19.23-50.46,40.41-67.98,60.63-13.02,15.03-10.6,34.56,5.85,45.61l98.11,35.29,8.11,25.72-61.83,87.58c-5.82,17.83,1.69,33.56,19.24,39.25l98.89,14.37c4.11,1.24,17.63,24.68,13.9,30.38l-42.42,90.05c-4.07,19.43,7.39,34.49,26.97,36.59,17.8,1.9,46.42-3.36,65.21-3.92,11.57-.34,23.26,1.1,34.75-.9l4.11,1.51,15.52,21.13c-7.82,35.68-21.29,71.49-24.38,107.74,2.29,14.46,14.03,22.15,27.85,23.98l101.84-24.73c4.22-.13,23,14.3,23.74,18.18-.06,5.13.25,10.33.06,15.46-.62,17.02-3.64,36.64-3.99,53.58-.64,30.28-5.39,63.88,37.09,58.2l92.88-43.3c13.9,6.29,23.27,6.11,26.99,22.19,6.47,28.01,5.4,67.61,13.86,93.64,5.59,17.21,27.29,25.63,43,15.89l81.85-60.31,25.51,6.85c4.34,2.39,28.58,80.72,34.33,92.84,10.21,21.5,27.25,26.92,47.58,13.58l70.25-75.64,24.49,2.3,56.98,90.83c12.28,12.31,29.94,11,42.35-.58l54.1-90.28c10.02.76,21.74-6.29,30.45.45l68.05,74c14.4,11.23,35.6,6.36,43.94-9.78,13.64-26.39,19.38-66.64,32.81-91.97,2.12-4.01,2.37-4.79,6.73-6.71,2.95-1.3,20.79-6.5,22.95-5.75,24.12,15.96,46.61,36.57,70.53,52.44,22.04,14.63,40.54,19.59,53.85-8.79l15.21-101.76,23.21-13.54,92.58,42.92c19.72,4.84,38.05-3.75,40.38-25,2.12-19.44-3.45-48.72-3.93-69.03-.2-8.61-1.7-32.08,2.8-37.67,2.27-2.8,16.04-13.29,19.26-13.39l100.18,24.95c17.42.43,32.24-13.61,31.31-31.3-1.43-27.17-21.06-68.02-24.43-96.77-1.19-10.22,10.89-19.55,17.73-26.51l101.85,4.97c19.94-1.72,31.61-21.89,24.92-40.3l-42.84-92.63,13.53-23.21c31.52-7.43,69.06-6.7,99.8-15.27,24.04-6.7,27.83-26.99,15.76-47.25-15.36-25.79-41.11-51.21-57.44-77.06,2.06-9.8,3.47-24.91,12.46-29.67,25.66-13.59,65.57-19.16,91.98-32.8,16.15-8.35,21.02-29.55,9.79-43.95l-74.96-69c-4.98-8.67,1.14-20.01.5-29.48l91.11-54.77c12.52-15.73,11.5-32.58-4.49-45.1ZM1006.51,184.02c86.52-10.26,87.43,127.46-3.87,114.12-61.25-8.94-61.69-106.34,3.87-114.12ZM273.16,717.64c77.4-7.45,84.63,105.98,16.53,114.43-84.01,10.42-90.48-107.3-16.53-114.43ZM300.46,1225.79c-28.36-99.36-37.03-203-24.66-305.88l123.85-64.27c16.44-8.54,27.87-27.12,29.41-45.45,2.14-25.53-15.28-43.4-23.01-66.21h124.78v481.81h-230.37ZM547.65,1695.57c-60.22-8.75-61.54-106.97,5.8-114.12,83.75-8.89,87.61,127.7-5.8,114.12ZM1455.71,1695.58c-59.82-8.65-60.66-106.17,5.75-114.18,83.03-10.01,88.77,127.84-5.75,114.18ZM1554.74,1525.03l-141.98-22.62c-27.27,1.85-50.01,16.76-57.46,43.86l-23.24,140.38c-37.73,17.59-76.77,32.75-116.98,43.82-155.61,42.87-321.32,35.16-471.63-23.36-8.42-3.28-46.72-17.62-49.01-23.94l-22.08-139.16c-8.37-24.42-29.92-40.49-55.89-41.6l-141.89,22.52c-3.46-.81-31.4-33.6-35.85-39.09-6.81-8.41-15.06-17.78-19.24-27.79h607.61c5.62,0,6.44-8.26,6.79-12.39,5.61-65.64-4.42-139.09.01-205.57,1.34-4.69-4.39-14.3-8.72-14.3h-166.06v-134.37h200.61c58.73,0,92.37,61.46,107.5,109.42,20.9,66.21,34.15,257.21,130.55,257.21h311.97c-15.65,24.41-35.77,45.46-55.01,66.98ZM859.12,878.35v-134.37h263.96c7.04,0,28.99,6.66,36.53,9.55,65.51,25.13,62.38,93.19-2.4,116.7-5.83,2.12-27.17,8.12-32.21,8.12h-265.88ZM1755.65,1072.22h-77.75c-3.98,0-6.06,5.38-6.54,8.75-3.05,21.49,1.45,45.21-2.59,68.5-11.04,63.66-70.11,93.19-128.22,63.92-44.14-22.24-41.11-59.27-56.07-99.41-17.16-46.03-49.57-94.47-86.89-126.23-1.28-1.09-3.04-1.98-4.77-1.94,17.41-13.76,37-24.6,53.77-39.29,187.61-164.35,41.71-419.51-177.52-434.89l-801.59.06c-4.04-2.99,64.78-64.59,70.12-69.03,96.5-80.27,214.13-135.96,337.81-159.37l101.82,99.77c41.76,30.38,69.96,4.05,99.86-24.83,20.62-19.93,40.21-44.08,61.3-63.48,4.04-3.71,9.06-6.22,12.61-10.57,217.7,36.52,410.38,180.78,515.94,372.8l-63.88,127.35c-8.56,26.3-.98,52.24,21.42,68.73l126.29,65.68c8.85,50.24,8.15,102.58,4.88,153.48ZM1760.29,832.12c-82.69,10.91-92.8-104.82-18.55-114.51,75.37-9.83,88.38,105.29,18.55,114.51Z"/>
      <path class="cls-1" d="M1063.83,272.1c-10.17,18.1-30.37,30.49-60.86,26.04-17.88-2.61-30.58-12.76-37.97-26.02-17.91-32.16-4.58-82.59,41.84-88.1,57.63-6.83,77.27,51.98,56.99,88.08Z"/>
      <path class="cls-1" d="M293.03,831.33h-.01c-2.35.52-4.8.92-7.34,1.17-5.46.55-11.37.45-17.69-.38-31.94-4.22-46.55-30.58-45.79-57.02v-.02c0-15.08,5.28-30.16,15.89-41.13.03-.03.06-.07.09-.1,10.59-11.57,26.29-18.63,46.69-16.43.55.05,1.1.12,1.66.19,16.5,2.15,28.83,9.54,37.12,19.61h.01c24.86,30.19,13.49,84.44-30.63,94.11Z"/>
      <path class="cls-1" d="M617.25,1642.87c-1.43,30.41-23.86,59.31-69.27,52.71-55.12-8.02-60.9-90.95-9.87-110.44,4.73-1.82,9.95-3.08,15.67-3.69,43.03-4.57,64.97,29.27,63.47,61.42Z"/>
      <path class="cls-1" d="M1456.03,1695.58c-28.1-4.06-43.19-27.75-44.39-52.56h0c-1.37-27.98,14.94-57.37,50.15-61.62,11.33-1.37,21.22.02,29.61,3.41h.01c53.1,21.39,46.24,122.57-35.38,110.77Z"/>
      <path class="cls-1" d="M1760.61,832.12c-9.26,1.22-17.61.86-25.03-.79h-.01c-44.12-9.67-55.49-63.92-30.63-94.1h.01c8.29-10.08,20.62-17.47,37.12-19.62,75.37-9.83,88.37,105.29,18.54,114.51Z"/>
    </g>
  </g>
</svg>